#!OML:ASF I:\Actors\actors\Patient Classification 2\Patient 1\Session 1\actor1.ASF
:FULLY-SPECIFIED
:DEGREES
1003
root -1.21883 18.4496 5.48493 13.8759 -13.4461 2.49401
lowerback 25.904 -2.26103 2.4072
upperback 4.49048 -2.1882 1.07085
thorax -9.43633 -1.09917 0.537731
lowerneck 10.0236 -3.39587 -2.31835
upperneck -6.1636 -4.36705 5.88482
head -3.63165 -2.37967 2.66289
rclavicle -2.90226e-014 -9.54166e-015
rhumerus -63.7331 22.2957 -86.8788
rradius 117.991
rwrist -36.8815
rhand 32.2196 -62.0923
rfingers 7.12502
rthumb 55.6907 -79.7193
lclavicle -2.90226e-014 -9.54166e-015
lhumerus -80.2426 -13.957 93.6896
lradius 131.297
lwrist 53.1151
lhand 31.0748 -8.96772
lfingers 7.12502
lthumb 54.6706 9.40656
rfemur -26.6778 7.31063 10.3896
rtibia 31.1571
rfoot -22.121 -4.22892
rtoes -16.6816
lfemur -24.4822 7.9915 -16.8057
ltibia 33.2978
lfoot -22.2525 11.0579
ltoes -57.6888
1004
root -1.21781 18.4437 5.47328 14.1402 -13.506 2.55458
lowerback 26.0679 -2.16946 2.42554
upperback 4.5333 -2.06661 1.01542
thorax -9.47369 -1.04337 0.42933
lowerneck 9.40294 -3.48341 -2.54301
upperneck -6.54996 -4.47716 6.14494
head -3.63108 -2.4374 2.7895
rclavicle 5.08889e-014 -6.04305e-014
rhumerus -64.6794 22.2978 -86.4621
rradius 118.533
rwrist -37.7425
rhand 32.1527 -62.495
rfingers 7.12502
rthumb 55.6312 -80.167
lclavicle 5.08889e-014 -6.04305e-014
lhumerus -80.6183 -13.8429 93.6237
lradius 131.255
lwrist 52.9044
lhand 31.1261 -9.06631
lfingers 7.12502
lthumb 54.7164 9.27551
rfemur -27.1631 7.19444 10.2795
rtibia 31.3843
rfoot -22.086 -4.15125
rtoes -16.8277
lfemur -24.9173 8.03316 -16.9144
ltibia 33.4776
lfoot -22.3292 10.9518
ltoes -57.3636
1005
root -1.2179 18.4369 5.46257 14.5814 -13.5832 2.60221
lowerback 25.9505 -2.06268 2.38149
upperback 4.48328 -1.94854 0.974948
thorax -9.46813 -0.987652 0.367423
lowerneck 8.67481 -3.67926 -2.66063
upperneck -7.17613 -4.72427 6.20981
head -3.69079 -2.55744 2.84006
rclavicle -4.85035e-014 9.93923e-015
rhumerus -64.754 21.5703 -87.4864
rradius 117.507
rwrist -37.1793
rhand 32.0989 -62.1648
rfingers 7.12502
rthumb 55.5834 -79.8729
lclavicle -4.85035e-014 9.93923e-015
lhumerus -80.7797 -13.7422 93.6938
lradius 131.117
lwrist 52.7822
lhand 31.2215 -9.0057
lfingers 7.12502
lthumb 54.8016 9.2755
rfemur -27.8594 7.15816 10.1344
rtibia 31.6376
rfoot -22.0634 -4.08631
rtoes -16.6267
lfemur -25.5839 8.13217 -17.052
ltibia 33.6859
lfoot -22.3157 10.9611
ltoes -57.6756
1006
root -1.21945 18.4306 5.4555 15.1402 -13.5212 2.63249
lowerback 25.6866 -2.0062 2.37302
upperback 4.32424 -1.88238 0.979045
thorax -9.50982 -0.956808 0.350458
lowerneck 7.70911 -3.7956 -2.63158
upperneck -7.53162 -4.86461 6.14384
head -3.61937 -2.61812 2.79364
rclavicle 6.36111e-015 -4.37326e-015
rhumerus -64.8959 21.4777 -87.9358
rradius 117.182
rwrist -37.316
rhand 32.1469 -62.0483
rfingers 7.12502
rthumb 55.6261 -79.7242
lclavicle 6.36111e-015 -4.37326e-015
lhumerus -80.7435 -13.7524 94.0403
lradius 130.873
lwrist 52.7104
lhand 31.1602 -8.88018
lfingers 7.12502
lthumb 54.7469 9.44003
rfemur -28.6183 7.10415 10.015
rtibia 31.8758
rfoot -22.1037 -4.11604
rtoes -16.4434
lfemur -26.3794 8.22083 -17.1671
ltibia 33.8822
lfoot -22.2433 10.969
ltoes -57.9573
1007
root -1.22469 18.4267 5.45178 15.647 -13.361 2.64342
lowerback 25.3548 -2.0892 2.18036
upperback 4.04017 -2.02428 1.16099
thorax -9.64641 -1.01443 0.70663
lowerneck 6.89832 -3.6543 -3.04777
upperneck -7.43749 -4.72136 6.0642
head -3.42841 -2.5221 2.80141
rclavicle 2.74323e-014 7.95139e-016
rhumerus -64.8712 22.3122 -88.1491
rradius 117.028
rwrist -37.5977
rhand 32.1556 -62.2647
rfingers 7.12502
rthumb 55.6338 -79.9348
lclavicle 2.74323e-014 7.95139e-016
lhumerus -80.6927 -13.2475 94.6784
lradius 130.613
lwrist 52.5159
lhand 31.0512 -8.93107
lfingers 7.12502
lthumb 54.6495 9.45815
rfemur -29.2459 7.09148 9.95089
rtibia 32.059
rfoot -22.2195 -4.32275
rtoes -16.6856
lfemur -27.0675 8.27397 -17.2203
ltibia 34.0135
lfoot -22.1304 10.8937
ltoes -58.1473
